<svg width="30" height="30" viewBox="0 0 30 30" fill="none" xmlns="http://www.w3.org/2000/svg">
<path d="M15 1.25L17.4142 2.86278L20.2619 2.29666L21.8752 4.71056L24.7227 5.27728L25.2894 8.12482L27.7033 9.7381L27.1372 12.5858L28.75 15L27.1372 17.4142L27.7033 20.2619L25.2894 21.8752L24.7227 24.7227L21.8752 25.2894L20.2619 27.7033L17.4142 27.1372L15 28.75L12.5858 27.1372L9.7381 27.7033L8.12482 25.2894L5.27728 24.7227L4.71056 21.8752L2.29666 20.2619L2.86278 17.4142L1.25 15L2.86278 12.5858L2.29666 9.7381L4.71056 8.12482L5.27728 5.27728L8.12482 4.71056L9.7381 2.29666L12.5858 2.86278L15 1.25Z" stroke="#33363F" stroke-width="1.5" stroke-linecap="round" stroke-linejoin="round"/>
<path d="M16.25 12.5C16.25 14.5711 14.5711 16.25 12.5 16.25C10.4289 16.25 8.75 14.5711 8.75 12.5C8.75 10.4289 10.4289 8.75 12.5 8.75C14.5711 8.75 16.25 10.4289 16.25 12.5Z" stroke="#33363F" stroke-width="1.5" stroke-linecap="round" stroke-linejoin="round"/>
<path d="M21.25 19.375C21.25 20.4105 20.4105 21.25 19.375 21.25C18.3395 21.25 17.5 20.4105 17.5 19.375C17.5 18.3395 18.3395 17.5 19.375 17.5C20.4105 17.5 21.25 18.3395 21.25 19.375Z" stroke="#33363F" stroke-width="1.5" stroke-linecap="round" stroke-linejoin="round"/>
</svg>
