<svg width="30" height="30" viewBox="0 0 30 30" fill="none" xmlns="http://www.w3.org/2000/svg">
<path d="M3.125 17.5H11.25C12.5 17.5 13.75 19.375 15 19.375C16.0804 19.375 18.0946 18.4412 19.0249 20.2056C19.3189 20.7632 18.9262 21.4004 18.3439 21.6418C16.995 22.2011 15.4927 22.9608 15 23.125L11.25 21.875M19.375 20.625L25.095 18.337C25.4422 18.1981 25.8199 18.1528 26.1901 18.2057C27.4986 18.3927 27.8682 20.1066 26.7531 20.8162L17.1983 26.8966C16.5952 27.2804 15.8566 27.3876 15.1693 27.1912L3.125 23.75M11.875 8.75V11.875C11.875 13.6009 13.2741 15 15 15C16.7259 15 18.125 13.6009 18.125 11.875V8.75M11.875 8.75V5.625C11.875 3.89911 13.2741 2.5 15 2.5C16.7259 2.5 18.125 3.89911 18.125 5.625V8.75M11.875 8.75H18.125" stroke="#33363F" stroke-width="1.5" stroke-linecap="round" stroke-linejoin="round"/>
</svg>
