<svg width="420" height="420" viewBox="0 0 420 420" fill="none" xmlns="http://www.w3.org/2000/svg">
<rect x="16" y="16" width="388" height="386" rx="78" fill="#F9C836"/>
<path d="M86.438 10.5977L86.7056 10.5681C89.7413 10.2629 95.6113 10.432 98.8485 10.4347L121.658 10.4535L194.379 10.4546L289.513 10.4502L316.07 10.4488C325.688 10.4414 332.608 10.0881 342.233 11.6828C356.06 14.1109 369.025 20.082 379.858 29.0135C396.69 42.805 407.273 62.785 409.223 84.4593C409.758 89.8983 409.565 96.2417 409.563 101.792L409.548 128.795V215.867L409.553 295.473L409.568 318.253C409.573 326.953 409.87 334.13 408.29 342.755C405.768 356.528 399.718 369.353 390.83 380.128C379.498 393.725 364.08 403.305 346.868 407.44C342.185 408.538 338.435 408.945 333.658 409.4C330.443 409.74 324.093 409.553 320.635 409.55L296.058 409.533L216.639 409.53L127.986 409.535L102.537 409.54C98.555 409.54 94.5698 409.57 90.5888 409.543C49.807 409.25 14.5348 376.84 10.8618 336.213C10.3283 330.31 10.4236 324.953 10.4254 319.045L10.4404 294.865L10.4424 214.889L10.4358 128.592L10.4237 103.686C10.421 94.4067 10.0767 86.6088 11.746 77.3818C14.1787 63.935 19.9357 51.4663 28.439 40.8278C39.7998 26.6893 55.56 16.7538 73.215 12.6003C77.7608 11.5395 81.812 11.1112 86.438 10.5977ZM327.938 396.925C332.338 396.633 336.523 396.45 340.865 395.603C356.683 392.518 369.74 384.715 380.298 372.675C388.493 363.168 393.893 351.575 395.898 339.185C397.51 329.383 396.968 310.553 396.968 300.018L396.96 235.652L396.963 139.553L396.965 109.382C396.968 102.18 396.935 95.374 396.64 88.1663C395.343 56.448 370.383 28.7273 338.98 24.07C328.708 22.5465 316.66 23.0842 306.098 23.0843L253.785 23.0882L147.372 23.0825C129.484 23.0817 110.078 22.7116 92.2971 23.1328C71.9838 23.6463 55.6578 30.5078 41.6445 45.2523C32.7473 54.679 26.7713 66.4815 24.4394 79.2327C22.5365 89.6207 23.0526 105.195 23.0514 116.123L23.0537 168.613L23.0608 273.613C23.0612 291.235 23.009 308.863 23.0817 326.485C23.1661 346.938 30.456 364.405 45.284 378.468C54.7025 387.29 66.4465 393.235 79.1318 395.603C89.2538 397.485 104.073 396.955 114.759 396.955L163.316 396.948L272.278 396.945C290.708 396.945 309.535 397.148 327.938 396.925Z" fill="url(#paint0_linear_82_41)"/>
<path d="M359.742 217.833L291.872 334.697C288.982 339.676 283.617 343 277.394 343H141.727C135.503 343 130.153 339.676 127.249 334.638L59.2451 217.833C56.2516 212.676 56.2516 206.324 59.2451 201.167L127.115 84.3031C130.005 79.3981 135.444 76 141.593 76H277.482C283.706 76 289.056 79.3833 291.96 84.3622L359.757 201.153C362.75 206.309 362.75 212.676 359.742 217.833ZM188.762 283.903H230.373C239.605 283.903 247.089 276.442 247.089 267.238C247.089 258.033 239.605 250.572 230.373 250.572H188.762C179.53 250.572 172.046 258.033 172.046 267.238C172.046 276.442 179.53 283.903 188.762 283.903ZM246.867 135.511H172.269C163.022 135.511 155.523 142.986 155.523 152.206C155.523 161.425 163.022 168.9 172.269 168.9H246.867C256.114 168.9 263.612 161.425 263.612 152.206C263.612 142.986 256.114 135.511 246.867 135.511ZM277.186 193.012H141.875C132.628 193.012 125.13 200.488 125.13 209.707C125.13 218.926 132.628 226.402 141.875 226.402H277.186C286.433 226.402 293.931 218.926 293.931 209.707C293.931 200.488 286.433 193.012 277.186 193.012Z" fill="white"/>
<defs>
<linearGradient id="paint0_linear_82_41" x1="209.996" y1="10.3855" x2="209.996" y2="409.604" gradientUnits="userSpaceOnUse">
<stop stop-color="#D8B038"/>
<stop offset="1" stop-color="#B9952B"/>
</linearGradient>
</defs>
</svg>
