<svg width="30" height="30" viewBox="0 0 30 30" fill="none" xmlns="http://www.w3.org/2000/svg">
<path fill-rule="evenodd" clip-rule="evenodd" d="M1.93951 7.60317C2.18888 4.52933 4.85865 2.5 7.74755 2.5H22.252C25.1409 2.5 27.8106 4.52933 28.06 7.60317C28.2442 9.87359 28.252 12.8466 27.4402 15.3813C26.7118 17.6555 25.1648 19.8407 23.5035 21.7096C21.8281 23.5944 19.9587 25.2433 18.4812 26.4407C16.4371 28.0972 13.5624 28.0972 11.5183 26.4407C10.0408 25.2433 8.17143 23.5944 6.49604 21.7096C4.83475 19.8407 3.28774 17.6555 2.55933 15.3813C1.7475 12.8466 1.75532 9.87359 1.93951 7.60317ZM7.74755 5C5.96139 5 4.55998 6.2194 4.43133 7.80532C4.25539 9.97402 4.27914 12.5548 4.94019 14.6187C5.51338 16.4083 6.79703 18.2852 8.36456 20.0487C9.91798 21.7963 11.6756 23.3502 13.0923 24.4984C14.2188 25.4113 15.7807 25.4113 16.9072 24.4984C18.3239 23.3502 20.0815 21.7963 21.635 20.0487C23.2025 18.2852 24.4861 16.4083 25.0593 14.6187C25.7204 12.5548 25.7441 9.97402 25.5682 7.80532C25.4395 6.2194 24.0381 5 22.252 5H7.74755ZM14.9998 8.75C15.6901 8.75 16.2498 9.30964 16.2498 10V15C16.2498 15.6904 15.6901 16.25 14.9998 16.25C14.3094 16.25 13.7498 15.6904 13.7498 15V10C13.7498 9.30964 14.3094 8.75 14.9998 8.75Z" fill="#33363F"/>
<path d="M16.25 20C16.25 20.6904 15.6904 21.25 15 21.25C14.3096 21.25 13.75 20.6904 13.75 20C13.75 19.3096 14.3096 18.75 15 18.75C15.6904 18.75 16.25 19.3096 16.25 20Z" fill="#33363F"/>
</svg>
