<svg width="420" height="420" viewBox="0 0 420 420" fill="none" xmlns="http://www.w3.org/2000/svg">
<rect x="16" y="16" width="388" height="386" rx="78" fill="#009BCF"/>
<path d="M86.438 10.5977L86.7056 10.5681C89.7413 10.2629 95.6113 10.432 98.8485 10.4347L121.658 10.4535L194.379 10.4546L289.513 10.4502L316.07 10.4488C325.688 10.4414 332.608 10.0881 342.233 11.6828C356.06 14.1109 369.025 20.082 379.858 29.0135C396.69 42.805 407.273 62.785 409.223 84.4593C409.758 89.8983 409.565 96.2417 409.563 101.792L409.548 128.795V215.867L409.553 295.473L409.568 318.253C409.573 326.953 409.87 334.13 408.29 342.755C405.768 356.528 399.718 369.353 390.83 380.128C379.498 393.725 364.08 403.305 346.868 407.44C342.185 408.538 338.435 408.945 333.658 409.4C330.443 409.74 324.093 409.553 320.635 409.55L296.058 409.533L216.639 409.53L127.986 409.535L102.537 409.54C98.555 409.54 94.5698 409.57 90.5888 409.543C49.807 409.25 14.5348 376.84 10.8618 336.213C10.3283 330.31 10.4236 324.953 10.4254 319.045L10.4404 294.865L10.4424 214.889L10.4358 128.592L10.4237 103.686C10.421 94.4067 10.0767 86.6088 11.746 77.3818C14.1787 63.935 19.9357 51.4663 28.439 40.8278C39.7998 26.6893 55.56 16.7538 73.215 12.6003C77.7608 11.5395 81.812 11.1112 86.438 10.5977ZM327.938 396.925C332.338 396.633 336.523 396.45 340.865 395.603C356.683 392.518 369.74 384.715 380.298 372.675C388.493 363.168 393.893 351.575 395.898 339.185C397.51 329.383 396.968 310.553 396.968 300.018L396.96 235.652L396.963 139.553L396.965 109.382C396.968 102.18 396.935 95.374 396.64 88.1663C395.343 56.448 370.383 28.7273 338.98 24.07C328.708 22.5465 316.66 23.0842 306.098 23.0843L253.785 23.0882L147.372 23.0825C129.484 23.0817 110.078 22.7116 92.2971 23.1328C71.9838 23.6463 55.6578 30.5078 41.6445 45.2523C32.7473 54.679 26.7713 66.4815 24.4394 79.2327C22.5365 89.6207 23.0526 105.195 23.0514 116.123L23.0537 168.613L23.0608 273.613C23.0612 291.235 23.009 308.863 23.0817 326.485C23.1661 346.938 30.456 364.405 45.284 378.468C54.7025 387.29 66.4465 393.235 79.1318 395.603C89.2538 397.485 104.073 396.955 114.759 396.955L163.316 396.948L272.278 396.945C290.708 396.945 309.535 397.148 327.938 396.925Z" fill="url(#paint0_linear_82_48)"/>
<path d="M304.275 178.215C304.702 178.311 304.515 178.269 304.91 178.642C306.625 186.792 298.077 208.557 294.91 217.25C286.437 240.7 276.827 263.722 266.112 286.237C258.095 303.157 249.522 319.812 240.409 336.17C237.433 341.545 234.457 347.222 231.032 352.33C230.375 353.31 228.724 354.365 227.604 354.73C224.106 355.865 219.677 353.957 218.831 350.19C217.516 345.132 217.659 339.98 216.979 334.852C215.466 322.54 213.644 310.267 211.516 298.045C210.568 292.32 209.409 284.055 207.785 278.782C205.625 277.855 203.099 277.392 200.791 276.962C197.281 276.39 193.83 275.765 190.337 275.095C179.811 273.072 169.186 271.317 158.605 269.585L141.309 266.625C134.267 265.452 126.42 265.237 121.588 259.377C123.776 257.99 126.812 256.845 129.23 255.77L145.034 248.861L191.388 228.32L267.74 194.429C279.385 189.23 292.57 183.021 304.275 178.215Z" fill="#FEFEFE"/>
<path d="M193.092 64.028C203.555 63.3688 201.879 74.4895 202.849 81.6263C205.481 100.996 207.807 121.274 212.215 140.311C217.462 141.992 222.92 142.543 228.306 143.631C243.997 146.812 259.905 148.941 275.643 151.834C280.375 152.704 296.92 154.349 297.97 159.461C297.47 160.433 294.753 161.485 293.66 161.965C282.573 166.836 271.488 171.704 260.415 176.607L188.632 208.504C171.458 215.726 154.364 223.854 137.218 231.208C129.783 234.397 122.756 237.913 115.091 240.713C114.128 229.383 121.06 212.989 124.984 202.243C133.776 177.811 143.805 153.843 155.033 130.431C162.944 113.897 171.349 97.6048 180.237 81.5753C182.825 76.9598 185.602 71.6555 188.6 67.3073C189.752 65.6363 191.197 64.711 193.092 64.028Z" fill="#FEFEFE"/>
<defs>
<linearGradient id="paint0_linear_82_48" x1="209.996" y1="10.3855" x2="209.996" y2="409.604" gradientUnits="userSpaceOnUse">
<stop stop-color="#0995C3"/>
<stop offset="1" stop-color="#0084B0"/>
</linearGradient>
</defs>
</svg>
