<svg width="420" height="420" viewBox="0 0 420 420" fill="none" xmlns="http://www.w3.org/2000/svg">
<rect x="16" y="16" width="388" height="386" rx="78" fill="#D9D9D9"/>
<path d="M86.438 10.5977L86.7055 10.5681C89.7413 10.2629 95.6113 10.432 98.8485 10.4347L121.658 10.4535L194.379 10.4546L289.513 10.4502L316.07 10.4488C325.688 10.4414 332.608 10.0881 342.233 11.6828C356.06 14.1109 369.025 20.082 379.858 29.0135C396.69 42.805 407.273 62.785 409.223 84.4593C409.758 89.8983 409.565 96.2417 409.563 101.792L409.548 128.795V215.867L409.553 295.473L409.568 318.253C409.573 326.953 409.87 334.13 408.29 342.755C405.768 356.528 399.718 369.353 390.83 380.128C379.498 393.725 364.08 403.305 346.868 407.44C342.185 408.538 338.435 408.945 333.658 409.4C330.443 409.74 324.093 409.553 320.635 409.55L296.058 409.533L216.639 409.53L127.986 409.535L102.537 409.54C98.555 409.54 94.5698 409.57 90.5888 409.543C49.807 409.25 14.5348 376.84 10.8618 336.213C10.3283 330.31 10.4236 324.953 10.4254 319.045L10.4404 294.865L10.4424 214.889L10.4358 128.592L10.4237 103.686C10.421 94.4067 10.0767 86.6088 11.746 77.3818C14.1787 63.935 19.9357 51.4663 28.439 40.8278C39.7998 26.6893 55.56 16.7538 73.215 12.6003C77.7608 11.5395 81.812 11.1112 86.438 10.5977ZM327.938 396.925C332.338 396.633 336.523 396.45 340.865 395.603C356.683 392.518 369.74 384.715 380.298 372.675C388.493 363.168 393.893 351.575 395.898 339.185C397.51 329.383 396.968 310.553 396.968 300.018L396.96 235.652L396.963 139.553L396.965 109.382C396.968 102.18 396.935 95.374 396.64 88.1663C395.343 56.448 370.383 28.7273 338.98 24.07C328.708 22.5465 316.66 23.0842 306.098 23.0843L253.785 23.0882L147.372 23.0825C129.484 23.0817 110.078 22.7116 92.297 23.1328C71.9838 23.6463 55.6578 30.5078 41.6445 45.2523C32.7473 54.679 26.7713 66.4815 24.4394 79.2327C22.5365 89.6207 23.0526 105.195 23.0514 116.123L23.0537 168.613L23.0608 273.613C23.0612 291.235 23.009 308.863 23.0817 326.485C23.1661 346.938 30.456 364.405 45.284 378.468C54.7025 387.29 66.4465 393.235 79.1318 395.603C89.2538 397.485 104.073 396.955 114.759 396.955L163.316 396.948L272.278 396.945C290.708 396.945 309.535 397.148 327.938 396.925Z" fill="#1B1B1B"/>
<path d="M117.446 104.059C129.354 103.743 142.076 103.91 154.038 103.963L154.057 167.245C154.058 178.405 153.832 190.376 154.207 201.46C173.744 187.317 197.872 187.369 220.954 187.436C227.288 187.454 233.506 186.948 240.035 186.967C239.732 177.707 239.958 167.162 239.958 157.812L239.959 103.981L275.038 103.962L275.083 186.966C286.435 186.955 296.87 187.505 307.068 181.51C309.215 180.247 311.703 178.633 313.34 176.728C314.858 174.962 316.313 171.335 318.585 170.544C321.725 169.45 342.098 180.752 346.11 182.747C344.193 188.952 339.258 196.894 334.968 201.74C323.65 214.532 306.628 221.925 289.758 223.324C286.053 223.631 282.325 223.51 278.61 223.635C277.405 223.675 276.523 223.482 275.268 223.578L275.06 224.005L275.078 316.203C271.2 315.93 266.063 316.082 262.035 316.082L239.972 316.117C240.004 285.312 239.608 254.023 240.001 223.285L205.41 223.26C199.972 223.254 190.742 222.989 185.692 223.665C179.666 224.473 167.839 228.47 163.614 232.801C160.669 235.82 155.174 244.438 154.589 248.506C153.636 255.142 154.055 265.19 154.065 272.068L154.078 316.203C150.235 315.93 144.77 316.08 140.804 316.08L117.434 316.09C117.699 309.045 117.443 300.01 117.443 292.823L117.44 246.227L117.446 104.059Z" fill="#1B1B1B"/>
</svg>
