<svg width="30" height="30" viewBox="0 0 30 30" fill="none" xmlns="http://www.w3.org/2000/svg">
<path d="M11.875 3.74985H13.125C14.5057 3.74985 15.625 4.86913 15.625 6.24985V11.25C15.625 14.7018 12.8268 17.5 9.375 17.5M6.875 3.74985H5.625C4.24429 3.74985 3.125 4.86913 3.125 6.24984V11.25C3.125 14.7018 5.92322 17.5 9.375 17.5M9.375 17.5V20.625C9.375 24.422 12.453 27.5 16.25 27.5C20.047 27.5 23.125 24.422 23.125 20.625V19.375M23.125 19.375C24.8509 19.375 26.25 17.9759 26.25 16.25C26.25 14.5241 24.8509 13.125 23.125 13.125C21.3991 13.125 20 14.5241 20 16.25C20 17.9759 21.3991 19.375 23.125 19.375ZM11.875 2.5L11.875 4.99976M6.875 2.50002V5.00002" stroke="#33363F" stroke-width="1.5" stroke-linecap="round" stroke-linejoin="round"/>
</svg>
