<svg width="30" height="30" viewBox="0 0 30 30" fill="none" xmlns="http://www.w3.org/2000/svg">
<path d="M20 5H21.25C22.6307 5 23.75 6.11929 23.75 7.5V23.75C23.75 25.1307 22.6307 26.25 21.25 26.25H8.75C7.36929 26.25 6.25 25.1307 6.25 23.75V7.5C6.25 6.11929 7.36929 5 8.75 5H10M20 5C20 6.38071 18.8807 7.5 17.5 7.5H12.5C11.1193 7.5 10 6.38071 10 5M20 5C20 3.61929 18.8807 2.5 17.5 2.5H12.5C11.1193 2.5 10 3.61929 10 5M10.0001 16.25H11.8751L13.7501 19.375L16.2501 13.125L18.1251 16.875H20.0001" stroke="#33363F" stroke-width="1.5" stroke-linecap="round" stroke-linejoin="round"/>
</svg>
