<svg width="420" height="420" viewBox="0 0 420 420" fill="none" xmlns="http://www.w3.org/2000/svg">
<rect x="16" y="16" width="388" height="386" rx="78" fill="#CE3794"/>
<path d="M86.438 10.5977L86.7056 10.5681C89.7413 10.2629 95.6113 10.432 98.8485 10.4347L121.658 10.4535L194.379 10.4546L289.513 10.4502L316.07 10.4488C325.688 10.4414 332.608 10.0881 342.233 11.6828C356.06 14.1109 369.025 20.082 379.858 29.0135C396.69 42.805 407.273 62.785 409.223 84.4593C409.758 89.8983 409.565 96.2417 409.563 101.792L409.548 128.795V215.867L409.553 295.473L409.568 318.253C409.573 326.953 409.87 334.13 408.29 342.755C405.768 356.528 399.718 369.353 390.83 380.128C379.498 393.725 364.08 403.305 346.868 407.44C342.185 408.538 338.435 408.945 333.658 409.4C330.443 409.74 324.093 409.553 320.635 409.55L296.058 409.533L216.639 409.53L127.986 409.535L102.537 409.54C98.555 409.54 94.5698 409.57 90.5888 409.543C49.807 409.25 14.5348 376.84 10.8618 336.213C10.3283 330.31 10.4236 324.953 10.4254 319.045L10.4404 294.865L10.4424 214.889L10.4358 128.592L10.4237 103.686C10.421 94.4067 10.0767 86.6088 11.746 77.3818C14.1787 63.935 19.9357 51.4663 28.439 40.8278C39.7998 26.6893 55.56 16.7538 73.215 12.6003C77.7608 11.5395 81.812 11.1112 86.438 10.5977ZM327.938 396.925C332.338 396.633 336.523 396.45 340.865 395.603C356.683 392.518 369.74 384.715 380.298 372.675C388.493 363.168 393.893 351.575 395.898 339.185C397.51 329.383 396.968 310.553 396.968 300.018L396.96 235.652L396.963 139.553L396.965 109.382C396.968 102.18 396.935 95.374 396.64 88.1663C395.343 56.448 370.383 28.7273 338.98 24.07C328.708 22.5465 316.66 23.0842 306.098 23.0843L253.785 23.0882L147.372 23.0825C129.484 23.0817 110.078 22.7116 92.2971 23.1328C71.9838 23.6463 55.6578 30.5078 41.6445 45.2523C32.7473 54.679 26.7713 66.4815 24.4394 79.2327C22.5365 89.6207 23.0526 105.195 23.0514 116.123L23.0537 168.613L23.0608 273.613C23.0612 291.235 23.009 308.863 23.0817 326.485C23.1661 346.938 30.456 364.405 45.284 378.468C54.7025 387.29 66.4465 393.235 79.1318 395.603C89.2538 397.485 104.073 396.955 114.759 396.955L163.316 396.948L272.278 396.945C290.708 396.945 309.535 397.148 327.938 396.925Z" fill="url(#paint0_linear_82_63)"/>
<path d="M242.468 88.3046C263.151 88.0263 273.91 94.8418 289.142 107.205C288.61 111.06 284.175 141.327 285.054 142.434C287.179 142.462 289.727 141.81 291.908 141.573C306.988 139.93 324.125 141.589 336.536 150.929C344.567 156.973 350.19 166.46 351.487 176.294C352.667 185.23 350.304 197.337 345.618 205.003C343.673 208.186 340.337 212.41 338.035 215.451C334.882 215.573 318.371 215.821 316.476 216.532C316.023 218.262 317.228 223.334 317.613 225.335C321.529 229.47 326.263 234.628 330.358 238.465C339.132 240.341 345.993 244.165 347.877 253.674C349.509 261.906 345.904 272.932 341.315 279.774C333.929 290.78 319.607 297.617 306.856 299.919C295.462 301.808 280.878 303.074 269.967 298.81C265.967 297.247 263.637 295.733 260.193 293.385C252.169 296.799 246.379 299.508 237.512 300.445C223.523 301.922 211.523 302.127 198.875 294.938C194.99 292.413 193.33 290.721 190.15 287.483C187.809 288.921 185.415 290.273 182.973 291.537C160.44 303.099 130.742 305.062 106.496 297.759C62.9377 284.636 53.5238 236.639 65.7812 198.102C72.3925 177.316 86.513 160.251 106.055 150.305C127.531 139.375 155.804 137.374 178.927 143.712C182.507 144.683 186.013 145.909 189.419 147.378C191.274 148.185 192.998 149.274 194.864 149.883C196.636 149.619 196.574 145.929 196.717 144.339C199.496 113.413 206.275 89.5323 242.468 88.3046Z" fill="white"/>
<path d="M147.557 164.516C178.048 163.363 201.434 174.46 202.977 207.778C204.855 248.348 182.58 275.409 141.503 277.594C127.045 278.133 109.988 276.634 98.9105 266.578C77.5503 247.191 82.8729 203.976 100.97 184.226C113.647 170.391 129.617 165.497 147.557 164.516Z" fill="#13489E"/>
<path d="M147.535 190.337C158.154 189.536 165.24 194.656 166.576 205.425C168.757 222.997 164.561 249.189 143.302 252.24C130.642 252.676 125.233 247.394 124.105 234.821C122.57 217.723 126.361 192.351 147.535 190.337Z" fill="white"/>
<path d="M241.136 112.604C248.901 112.292 256.713 113.459 263.217 117.98C262.444 125.478 261.137 133.916 260.134 141.459L254.739 182.175L252.478 198.966C252.222 200.871 250.814 207.814 251.979 209.1L252.561 209.037C253.782 208.155 254.051 207.376 254.965 206.198C264.602 193.736 273.363 179.182 285.67 169.199C292.612 163.569 312.497 164.065 319.581 169.142C326.582 174.161 324.849 185.968 319.916 192.244C316.884 191.939 308.731 191.63 306.031 192.091C298.683 193.347 288.284 208.867 284.003 214.851C285.444 217.707 287.187 220.652 288.76 223.461C293.326 231.605 297.799 239.83 302.5 247.895C302.872 248.536 304.321 250.473 304.878 250.741C308.374 252.428 314.002 251.025 317.672 250.41C321.215 254.56 321.605 258.589 320.45 263.697C316.82 276.746 295.535 277.485 284.568 277.336C272.509 277.171 269.189 266.158 264.752 257.029L254.324 235.608C253.331 233.572 251.026 228.477 249.735 227.041L249.089 227.077C248.468 227.626 248.24 228.166 248.121 228.984C245.89 244.038 244.644 259.665 242.101 274.644C239.847 275.565 236.749 276.183 234.323 276.404C223.789 277.429 206.994 279.088 206.287 264.142C205.913 256.219 207.688 247.214 208.732 239.29L213.81 200.374L219.959 153.224C221.046 144.896 221.856 136.321 223.488 128.101C225.661 117.143 230.453 113.338 241.136 112.604Z" fill="#13489E"/>
<defs>
<linearGradient id="paint0_linear_82_63" x1="209.996" y1="10.3855" x2="209.996" y2="409.604" gradientUnits="userSpaceOnUse">
<stop stop-color="#CA3390"/>
<stop offset="1" stop-color="#A52975"/>
</linearGradient>
</defs>
</svg>
